<svg width="88" height="15" viewBox="0 0 88 15" fill="none" xmlns="http://www.w3.org/2000/svg">
<path d="M4.0931 13.8125H1.47624V2.36068C1.47624 2.21483 1.46031 2.12003 1.42701 2.07336C1.3937 2.02669 1.3126 1.9771 1.18082 1.9246L0.472656 1.64749L0.688435 0.49823H7.29792C9.00243 0.49823 10.229 0.824924 10.9763 1.47831C11.7236 2.1317 12.0972 3.18616 12.0972 4.63878C12.0972 5.78805 11.864 6.67333 11.3992 7.29317C10.9328 7.91447 10.2088 8.31701 9.22544 8.50223L12.452 13.8125H9.56142L6.63031 8.79975H4.0931V13.8125ZM4.0931 6.81917H7.00394C7.90905 6.81917 8.55494 6.65437 8.9416 6.3233C9.32827 5.99369 9.52232 5.43218 9.52232 4.63878C9.52232 3.85997 9.32827 3.3043 8.9416 2.97469C8.55494 2.64508 7.90905 2.47881 7.00394 2.47881H4.0931V6.81917Z" fill="#8F90A6"/>
<path d="M24.2375 0.499207V2.52062H17.3124V6.06759H22.8212V8.0088H17.3124V11.7935H24.3939V13.8149H14.6969V2.36311C14.6969 2.21727 14.681 2.12247 14.6477 2.0758C14.6144 2.02913 14.5333 1.97954 14.4015 1.92704L13.6934 1.64993L13.9091 0.500666H24.2375V0.499207Z" fill="#8F90A6"/>
<path d="M26.5593 2.36068C26.5593 2.21483 26.5433 2.12003 26.51 2.07336C26.4767 2.02669 26.3956 1.9771 26.2638 1.9246L25.5557 1.64749L25.7714 0.49823H28.7228C28.9198 0.49823 29.0472 0.521567 29.1066 0.568237C29.166 0.614908 29.2731 0.743251 29.431 0.954727L36.2186 10.2072V0.49969H38.6385V13.8125H36.1013L28.9806 4.10499V13.8125H26.5607V2.36068H26.5593Z" fill="#8F90A6"/>
<path d="M47.9817 0.499207C48.2439 0.974663 48.5262 1.54638 48.8275 2.21289C49.1287 2.87941 49.44 3.6028 49.7615 4.38161C50.083 5.16189 50.4002 5.97279 50.7159 6.81869C51.0301 7.66459 51.3285 8.50321 51.6109 9.33453C51.8933 10.1658 52.1525 10.9665 52.3885 11.7322C52.6246 12.4979 52.8215 13.1921 52.9779 13.812H50.3423C50.1974 13.2709 50.0468 12.7415 49.8904 12.2266C49.7326 11.7118 49.582 11.2028 49.4371 10.7011H43.614C43.4562 11.2028 43.3027 11.7118 43.1521 12.2266C43.0015 12.7415 42.8537 13.2709 42.7089 13.812H40.0732C40.2311 13.1907 40.428 12.4979 40.6641 11.7322C40.9002 10.9665 41.1594 10.1673 41.4418 9.33453C41.7242 8.50175 42.0225 7.66314 42.3367 6.81869C42.651 5.97425 42.9696 5.16189 43.2911 4.38161C43.6126 3.6028 43.9239 2.87941 44.2252 2.21289C44.5264 1.54638 44.8088 0.974663 45.0709 0.499207H47.9817ZM46.5249 2.83565C45.6849 4.73748 44.9246 6.71222 44.2425 8.75989H48.8072C48.099 6.71222 47.3387 4.73893 46.5249 2.83565Z" fill="#8F90A6"/>
<path d="M54.2956 2.36068C54.2956 2.21483 54.2782 2.12003 54.2463 2.07336C54.213 2.02669 54.1319 1.9771 54.0001 1.9246L53.292 1.64749L53.5078 0.49823H56.7343C56.8516 0.49823 56.911 0.563863 56.911 0.696582V8.40306C56.911 9.67045 57.1803 10.582 57.7176 11.1377C58.2549 11.6919 59.1267 11.969 60.3345 11.969C61.5538 11.969 62.43 11.6919 62.9615 11.1377C63.493 10.5834 63.758 9.67191 63.758 8.40306V0.49823H66.3748V8.60141C66.3748 9.56545 66.2604 10.3909 66.0302 11.0779C65.8014 11.7648 65.4437 12.3292 64.9585 12.7711C64.4734 13.213 63.8463 13.5368 63.0802 13.7425C62.3127 13.9467 61.3989 14.0487 60.3359 14.0487C59.273 14.0487 58.3592 13.9467 57.5916 13.7425C56.8241 13.5383 56.1985 13.2145 55.7133 12.7711C55.2282 12.3292 54.8705 11.7648 54.6417 11.0779C54.4114 10.3909 54.297 9.56545 54.297 8.60141V2.36068H54.2956Z" fill="#8F90A6"/>
<path d="M69.404 2.36068C69.404 2.21483 69.388 2.12003 69.3547 2.07336C69.3214 2.02669 69.2403 1.9771 69.1086 1.9246L68.4004 1.64749L68.6162 0.49823H71.8427C71.96 0.49823 72.0194 0.563863 72.0194 0.696582V11.791H78.0583V13.8125H69.4025V2.36068H69.404Z" fill="#8F90A6"/>
<path d="M80.893 2.51965H76.6035V0.49823H87.7979V2.51965H83.5099V13.8125H80.893V2.51965Z" fill="#8F90A6"/>
</svg>
