<svg width="663" height="397" viewBox="0 0 663 397" fill="none" xmlns="http://www.w3.org/2000/svg">
<path d="M582.353 200.637C580.933 200.621 579.503 200.552 578.107 200.431L578.196 199.377C579.569 199.496 580.97 199.564 582.366 199.58L582.353 200.637ZM586.607 200.531L586.544 199.477C587.919 199.393 589.318 199.258 590.7 199.074L590.84 200.128C589.431 200.315 588.008 200.444 586.615 200.531H586.607ZM573.882 199.891C572.472 199.651 571.071 199.364 569.717 199.003L569.981 197.983C571.298 198.325 572.678 198.618 574.058 198.85L573.882 199.891ZM595.034 199.414L594.823 198.381C596.182 198.117 597.549 197.78 598.887 197.408L599.166 198.426C597.805 198.802 596.414 199.134 595.044 199.414H595.034ZM565.642 197.748C564.293 197.263 562.969 196.715 561.691 196.114L562.141 195.163C563.374 195.748 564.668 196.283 565.985 196.744L565.642 197.748ZM603.223 197.153L602.875 196.159C604.192 195.698 605.494 195.186 606.766 194.638L607.182 195.606C605.889 196.167 604.556 196.689 603.223 197.153ZM557.948 194.085L557.798 193.993L558.359 193.102L558.496 193.186L557.948 194.085ZM611.023 193.784L610.538 192.849C611.779 192.203 613.001 191.51 614.168 190.788L614.721 191.684C613.533 192.422 612.287 193.128 611.023 193.787V193.784ZM618.251 189.304L617.626 188.453C618.756 187.628 619.852 186.753 620.887 185.854L621.577 186.645C620.521 187.572 619.402 188.455 618.251 189.309V189.304ZM624.67 183.722L623.911 182.989C624.883 181.983 625.81 180.934 626.666 179.864L627.486 180.525C626.611 181.621 625.663 182.699 624.67 183.727V183.722ZM629.988 177.07L629.106 176.495C629.863 175.333 630.561 174.133 631.197 172.9L632.132 173.383C631.482 174.65 630.766 175.882 629.988 177.075V177.07ZM633.887 169.493L632.907 169.111C633.407 167.816 633.84 166.497 634.203 165.157L635.219 165.434C634.847 166.811 634.402 168.168 633.887 169.498V169.493ZM636.112 161.27L635.075 161.101C635.294 159.732 635.443 158.353 635.522 156.969L636.576 157.029C636.495 158.452 636.34 159.869 636.112 161.275V161.27Z" fill="#1A2578"/>
<path d="M650.422 148.409H618.102C612.076 148.409 607.191 153.296 607.191 159.324C607.191 165.352 612.076 170.239 618.102 170.239H650.422C656.448 170.239 661.333 165.352 661.333 159.324C661.333 153.296 656.448 148.409 650.422 148.409Z" fill="#E8D2D7"/>
<path d="M622.193 162.393C623.888 162.393 625.262 161.018 625.262 159.322C625.262 157.627 623.888 156.252 622.193 156.252C620.498 156.252 619.124 157.627 619.124 159.322C619.124 161.018 620.498 162.393 622.193 162.393Z" fill="white"/>
<path d="M634.262 162.393C635.957 162.393 637.331 161.018 637.331 159.322C637.331 157.627 635.957 156.252 634.262 156.252C632.567 156.252 631.193 157.627 631.193 159.322C631.193 161.018 632.567 162.393 634.262 162.393Z" fill="white"/>
<path d="M646.334 162.393C648.029 162.393 649.403 161.018 649.403 159.322C649.403 157.627 648.029 156.252 646.334 156.252C644.64 156.252 643.266 157.627 643.266 159.322C643.266 161.018 644.64 162.393 646.334 162.393Z" fill="white"/>
<path d="M348.229 231.445L347.22 231.142C347.425 230.454 347.654 229.769 347.902 229.107L348.89 229.476C348.653 230.125 348.432 230.781 348.229 231.445Z" fill="#1A2578"/>
<path d="M429.096 304.881H428.806V303.826H429.038C430.392 303.826 431.717 303.792 433.037 303.732L433.087 304.786C431.757 304.846 430.413 304.881 429.096 304.881ZM424.521 304.738C423.098 304.649 421.663 304.514 420.251 304.338L420.38 303.284C421.771 303.457 423.188 303.589 424.594 303.679L424.521 304.738ZM437.357 304.475L437.256 303.421C438.629 303.294 440.046 303.131 441.471 302.941L441.613 303.995C440.178 304.188 438.747 304.354 437.362 304.483L437.357 304.475ZM416.02 303.668C414.603 303.405 413.197 303.089 411.835 302.741L412.098 301.721C413.439 302.063 414.827 302.369 416.223 302.633L416.02 303.668ZM445.838 303.331L445.659 302.293C447.032 302.053 448.433 301.784 449.821 301.502L450.037 302.532C448.631 302.838 447.219 303.102 445.833 303.339L445.838 303.331ZM454.202 301.592L453.957 300.566C455.332 300.238 456.703 299.892 458.071 299.528L458.335 300.548C456.96 300.917 455.58 301.267 454.196 301.599L454.202 301.592ZM407.712 301.544C406.351 301.099 404.994 300.601 403.685 300.066L404.083 299.088C405.371 299.615 406.701 300.105 408.034 300.543L407.712 301.544ZM462.452 299.409L462.162 298.397C463.521 298.007 464.879 297.604 466.234 297.188L466.54 298.197C465.177 298.619 463.813 299.024 462.446 299.412L462.452 299.409ZM399.773 298.295C398.488 297.649 397.221 296.953 396.012 296.218L396.557 295.316C397.742 296.036 398.983 296.718 400.245 297.351L399.773 298.295ZM470.61 296.924L470.288 295.92C471.639 295.49 472.988 295.05 474.337 294.602L474.663 295.604C473.311 296.057 471.958 296.5 470.604 296.932L470.61 296.924ZM392.435 293.835C391.268 292.979 390.14 292.072 389.084 291.136L389.782 290.346C390.812 291.258 391.916 292.146 393.056 292.981L392.435 293.835ZM386.005 288.129C385.026 287.076 384.102 285.973 383.236 284.824L384.079 284.189C384.922 285.309 385.822 286.385 386.777 287.412L386.005 288.129ZM380.831 281.232C380.097 279.986 379.461 278.684 378.927 277.339L379.907 276.955C380.424 278.25 381.04 279.503 381.751 280.702L380.831 281.232ZM381.045 276.612C380.731 276.612 380.418 276.612 380.107 276.612L380.136 275.558C381.005 275.582 381.88 275.574 382.752 275.526C383.278 275.497 383.805 275.458 384.316 275.402L384.427 276.457C383.9 276.515 383.347 276.557 382.81 276.586C382.209 276.604 381.627 276.62 381.039 276.62L381.045 276.612ZM375.808 276.206C374.386 275.985 372.978 275.678 371.594 275.286L371.881 274.272C373.225 274.653 374.593 274.952 375.974 275.165L375.808 276.206ZM388.697 275.566L388.375 274.559C389.686 274.157 390.929 273.561 392.063 272.791L392.664 273.658C391.442 274.49 390.103 275.136 388.692 275.574L388.697 275.566ZM367.513 273.868C366.183 273.315 364.887 272.684 363.631 271.979L364.157 271.062C365.377 271.75 366.635 272.366 367.927 272.907L367.513 273.868ZM377.739 273.146C377.57 272.177 377.482 271.195 377.476 270.21V270.089C377.476 269.649 377.502 269.206 377.547 268.771L378.6 268.874C378.561 269.285 378.537 269.694 378.534 270.102L378.008 270.216H378.534C378.537 271.141 378.617 272.064 378.774 272.975L377.739 273.146ZM395.74 270.469L394.85 269.902C395.583 268.775 396.047 267.495 396.207 266.16L397.26 266.273C397.08 267.772 396.558 269.211 395.735 270.477L395.74 270.469ZM360.001 269.644C358.838 268.794 357.728 267.874 356.677 266.89L357.396 266.12C358.418 267.074 359.495 267.968 360.623 268.795L360.001 269.644ZM379.617 264.9L378.645 264.491C379.214 263.123 380.011 261.86 381 260.757L381.79 261.466C380.873 262.483 380.137 263.65 379.612 264.916L379.617 264.9ZM353.716 263.732C353.315 263.249 352.929 262.754 352.557 262.248C352.077 261.595 351.616 260.931 351.184 260.23L352.077 259.668C352.496 260.335 352.944 260.986 353.395 261.624C353.754 262.114 354.129 262.594 354.517 263.063L353.716 263.732ZM395.503 262.335C394.857 261.174 393.897 260.217 392.732 259.576L393.259 258.659C394.592 259.396 395.692 260.492 396.436 261.822L395.503 262.335ZM385.014 259.094L384.577 258.134L384.688 258.084C386.044 257.512 387.516 257.272 388.984 257.383L388.915 258.438C387.616 258.337 386.311 258.548 385.109 259.054L385.014 259.094ZM349.119 256.453C348.512 255.145 347.984 253.802 347.539 252.431L348.54 252.104C348.971 253.435 349.482 254.739 350.07 256.008L349.119 256.453ZM346.464 248.251C346.185 246.837 345.989 245.408 345.879 243.971L346.933 243.892C347.041 245.286 347.23 246.673 347.499 248.046L346.464 248.251ZM346.859 239.699L345.806 239.654C345.868 238.214 346.018 236.778 346.253 235.356L347.307 235.53C347.074 236.907 346.925 238.298 346.859 239.694V239.699Z" fill="#1A2578"/>
<path d="M480.443 292.636L478.441 293.304L478.775 294.304L480.776 293.636L480.443 292.636Z" fill="#1A2578"/>
<g filter="url(#filter0_d_1_89392)">
<path d="M133.988 48.7725V232.927C133.989 236.119 135.257 239.18 137.513 241.436C139.769 243.693 142.828 244.961 146.018 244.961H404.919C406.499 244.961 408.063 244.65 409.522 244.046C410.982 243.441 412.308 242.555 413.425 241.437C414.542 240.32 415.429 238.993 416.033 237.533C416.638 236.073 416.949 234.508 416.949 232.927V48.7725H133.988Z" fill="#C4C8E4"/>
<path d="M404.919 24H146.018C142.689 24.0035 139.498 25.3279 137.144 27.6827C134.79 30.0375 133.465 33.2304 133.461 36.5609V49.301H417.475V36.5609C417.471 33.2304 416.147 30.0375 413.793 27.6827C411.439 25.3279 408.247 24.0035 404.919 24Z" fill="#1A2578"/>
<path d="M151.547 41.3951C154.166 41.3951 156.288 39.2712 156.288 36.6512C156.288 34.0312 154.166 31.9072 151.547 31.9072C148.928 31.9072 146.806 34.0312 146.806 36.6512C146.806 39.2712 148.928 41.3951 151.547 41.3951Z" fill="white"/>
<path d="M169.635 41.3951C172.254 41.3951 174.376 39.2712 174.376 36.6512C174.376 34.0312 172.254 31.9072 169.635 31.9072C167.016 31.9072 164.894 34.0312 164.894 36.6512C164.894 39.2712 167.016 41.3951 169.635 41.3951Z" fill="white"/>
<path d="M383.788 42.1854H342.696C341.229 42.1854 339.822 41.6023 338.784 40.5644C337.747 39.5264 337.164 38.1187 337.164 36.6508C337.164 35.1829 337.747 33.7752 338.784 32.7373C339.822 31.6993 341.229 31.1162 342.696 31.1162H383.788C385.255 31.1162 386.662 31.6993 387.699 32.7373C388.737 33.7752 389.319 35.1829 389.319 36.6508C389.319 38.1187 388.737 39.5264 387.699 40.5644C386.662 41.6023 385.255 42.1854 383.788 42.1854Z" fill="white"/>
<path d="M339.172 94.2051H318.626V83.3994H339.172V94.2051ZM319.68 93.1509H338.118V84.4536H319.68V93.1509Z" fill="#1A2578"/>
<path d="M373.579 88.4072H345.144V89.1979H373.579V88.4072Z" fill="#0B1350"/>
<path d="M338.642 103.432H319.145V113.186H338.642V103.432Z" fill="#BF0830"/>
<path d="M373.579 107.915H345.144V108.706H373.579V107.915Z" fill="#0B1350"/>
<path d="M290.101 173.871H178.064V178.425H290.101V173.871Z" fill="#E8D2D7"/>
<path d="M290.101 187.226H178.064V191.78H290.101V187.226Z" fill="#E8D2D7"/>
<path d="M290.101 200.58H178.064V205.134H290.101V200.58Z" fill="#E8D2D7"/>
<path d="M189.036 117.846L188.151 117.277L199.125 100.201L207.367 106.239L219.031 94.6008L236.321 96.9755L254.173 81.8238L272.806 97.0229L288.358 74.3047L289.23 74.9003L273.03 98.5647L254.186 83.1943L236.643 98.085L219.405 95.7183L207.473 107.623L199.404 101.714L189.036 117.846Z" fill="#1A2578"/>
<path d="M198.872 123.898H189.039V132.057H198.872V123.898Z" fill="#BF0830"/>
<path d="M217.484 117.017H207.651V132.058H217.484V117.017Z" fill="#BF0830"/>
<path d="M236.1 111.771H226.267V132.057H236.1V111.771Z" fill="#BF0830"/>
<path d="M254.716 98.1592H244.883V132.055H254.716V98.1592Z" fill="#BF0830"/>
<path d="M273.328 111.922H263.495V132.057H273.328V111.922Z" fill="#BF0830"/>
<path d="M293.964 132.584H177.536V71.4395H178.59V131.529H293.964V132.584Z" fill="#BF0830"/>
<path d="M369.976 174.909C366.876 169.519 362.14 165.256 356.456 162.741C350.771 160.226 344.433 159.589 338.362 160.923C332.291 162.256 326.802 165.491 322.693 170.157C318.584 174.823 316.068 180.678 315.511 186.872C314.953 193.066 316.383 199.277 319.592 204.602C322.802 209.928 327.624 214.092 333.359 216.49C339.095 218.887 345.444 219.394 351.487 217.935C357.529 216.477 362.95 213.13 366.962 208.381C367.515 207.724 368.016 207.063 368.511 206.362L344.628 189.494L369.976 174.909Z" fill="#1A2578"/>
<path d="M381.945 204.04L361.302 189.461L383.202 176.86L383.399 177.203C385.737 181.284 386.862 185.948 386.643 190.646C386.424 195.345 384.87 199.884 382.164 203.73L381.945 204.04ZM362.769 189.529L381.753 202.936C384.235 199.281 385.658 195.011 385.864 190.597C386.07 186.183 385.051 181.798 382.92 177.928L362.769 189.529Z" fill="#0B1350"/>
</g>
<path d="M577.943 41.2002H449.518C447.158 41.2002 445.245 43.1141 445.245 45.475V94.3745C445.245 96.7354 447.158 98.6493 449.518 98.6493H577.943C580.303 98.6493 582.216 96.7354 582.216 94.3745V45.475C582.216 43.1141 580.303 41.2002 577.943 41.2002Z" fill="#E8D2D7"/>
<path d="M471.41 50.0288L473.33 53.9188C473.357 53.9743 473.398 54.0223 473.448 54.0586C473.498 54.0948 473.556 54.1183 473.617 54.127L477.908 54.7516C477.978 54.7616 478.044 54.7911 478.099 54.8368C478.153 54.8825 478.194 54.9425 478.216 55.01C478.238 55.0776 478.24 55.1499 478.223 55.2189C478.206 55.2878 478.17 55.3506 478.119 55.4L475.013 58.4282C474.969 58.4714 474.936 58.5247 474.917 58.5835C474.899 58.6423 474.894 58.7048 474.905 58.7655L475.637 63.043C475.649 63.113 475.641 63.1847 475.614 63.2503C475.587 63.3158 475.542 63.3725 475.484 63.4141C475.427 63.4557 475.359 63.4805 475.289 63.4857C475.218 63.4909 475.147 63.4763 475.084 63.4436L471.241 61.4248C471.187 61.3962 471.126 61.3812 471.065 61.3812C471.003 61.3812 470.943 61.3962 470.888 61.4248L467.05 63.4436C466.987 63.4763 466.917 63.4909 466.846 63.4857C466.775 63.4805 466.708 63.4557 466.65 63.4141C466.593 63.3725 466.548 63.3158 466.521 63.2503C466.494 63.1847 466.486 63.113 466.497 63.043L467.229 58.7655C467.24 58.7048 467.236 58.6423 467.217 58.5835C467.198 58.5247 467.165 58.4714 467.121 58.4282L464.016 55.4C463.965 55.3506 463.929 55.2878 463.912 55.2189C463.894 55.1499 463.897 55.0776 463.919 55.01C463.941 54.9425 463.981 54.8825 464.036 54.8368C464.09 54.7911 464.156 54.7616 464.227 54.7516L468.517 54.127C468.579 54.1183 468.637 54.0948 468.687 54.0586C468.737 54.0223 468.777 53.9743 468.805 53.9188L470.725 50.0288C470.756 49.964 470.804 49.9094 470.865 49.8711C470.925 49.8328 470.996 49.8125 471.067 49.8125C471.139 49.8125 471.209 49.8328 471.27 49.8711C471.33 49.9094 471.379 49.964 471.41 50.0288Z" fill="#BF0830"/>
<path d="M499.853 50.0289L501.77 53.919C501.798 53.9745 501.838 54.0224 501.888 54.0587C501.938 54.095 501.996 54.1185 502.057 54.1272L506.348 54.7518C506.419 54.7618 506.485 54.7913 506.539 54.8369C506.594 54.8826 506.634 54.9426 506.656 55.0102C506.678 55.0777 506.681 55.1501 506.663 55.219C506.646 55.288 506.61 55.3507 506.559 55.4001L503.454 58.4284C503.41 58.4716 503.377 58.5249 503.358 58.5837C503.339 58.6424 503.335 58.7049 503.346 58.7657L504.078 63.0432C504.089 63.1131 504.081 63.1849 504.054 63.2504C504.027 63.316 503.982 63.3727 503.925 63.4143C503.867 63.4558 503.8 63.4806 503.729 63.4858C503.658 63.491 503.588 63.4765 503.525 63.4438L499.689 61.4249C499.635 61.3963 499.574 61.3814 499.513 61.3814C499.451 61.3814 499.391 61.3963 499.336 61.4249L495.499 63.4438C495.436 63.4765 495.365 63.491 495.294 63.4858C495.224 63.4806 495.156 63.4558 495.098 63.4143C495.041 63.3727 494.996 63.316 494.969 63.2504C494.942 63.1849 494.934 63.1131 494.945 63.0432L495.678 58.7657C495.688 58.7049 495.684 58.6424 495.665 58.5837C495.647 58.5249 495.614 58.4716 495.57 58.4284L492.464 55.4001C492.413 55.3507 492.377 55.288 492.36 55.219C492.343 55.1501 492.345 55.0777 492.367 55.0102C492.389 54.9426 492.43 54.8826 492.484 54.8369C492.538 54.7913 492.604 54.7618 492.675 54.7518L496.966 54.1272C497.027 54.1185 497.085 54.095 497.135 54.0587C497.185 54.0224 497.226 53.9745 497.253 53.919L499.173 50.0289C499.205 49.9664 499.254 49.9139 499.314 49.8773C499.374 49.8407 499.443 49.8213 499.513 49.8213C499.583 49.8213 499.652 49.8407 499.712 49.8773C499.772 49.9139 499.821 49.9664 499.853 50.0289Z" fill="#BF0830"/>
<path d="M528.293 50.0293L530.211 53.9193C530.238 53.9748 530.278 54.0227 530.328 54.059C530.378 54.0953 530.436 54.1188 530.498 54.1275L534.789 54.7521C534.859 54.7621 534.925 54.7916 534.979 54.8373C535.034 54.8829 535.074 54.943 535.096 55.0105C535.118 55.0781 535.121 55.1504 535.104 55.2193C535.086 55.2883 535.05 55.351 534.999 55.4005L531.894 58.4287C531.85 58.4719 531.817 58.5252 531.798 58.584C531.779 58.6428 531.775 58.7052 531.786 58.766L532.518 63.0435C532.529 63.1135 532.521 63.1852 532.494 63.2508C532.467 63.3163 532.422 63.373 532.365 63.4146C532.308 63.4562 532.24 63.4809 532.169 63.4861C532.098 63.4914 532.028 63.4768 531.965 63.4441L528.138 61.4253C528.083 61.3966 528.023 61.3817 527.961 61.3817C527.9 61.3817 527.839 61.3966 527.785 61.4253L523.947 63.4441C523.884 63.4768 523.813 63.4914 523.742 63.4861C523.672 63.4809 523.604 63.4562 523.547 63.4146C523.489 63.373 523.444 63.3163 523.417 63.2508C523.39 63.1852 523.382 63.1135 523.394 63.0435L524.126 58.766C524.137 58.7052 524.133 58.6426 524.114 58.5838C524.095 58.5249 524.062 58.4716 524.018 58.4287L520.912 55.4005C520.861 55.351 520.825 55.2883 520.808 55.2193C520.791 55.1504 520.794 55.0781 520.815 55.0105C520.837 54.943 520.878 54.8829 520.932 54.8373C520.987 54.7916 521.053 54.7621 521.123 54.7521L525.414 54.1275C525.475 54.1188 525.533 54.0953 525.583 54.059C525.633 54.0227 525.674 53.9748 525.701 53.9193L527.621 50.0293C527.654 49.9687 527.703 49.9182 527.762 49.8829C527.821 49.8477 527.888 49.8291 527.957 49.8291C528.026 49.8291 528.093 49.8477 528.153 49.8829C528.212 49.9182 528.26 49.9687 528.293 50.0293Z" fill="#BF0830"/>
<path d="M556.734 50.0291L558.651 53.9191C558.679 53.9746 558.719 54.0225 558.769 54.0588C558.819 54.0951 558.877 54.1186 558.938 54.1273L563.229 54.7519C563.3 54.7619 563.366 54.7914 563.42 54.8371C563.474 54.8827 563.515 54.9428 563.537 55.0103C563.559 55.0779 563.561 55.1502 563.544 55.2191C563.527 55.2881 563.491 55.3508 563.44 55.4003L560.334 58.4285C560.29 58.4717 560.257 58.525 560.239 58.5838C560.22 58.6425 560.216 58.705 560.226 58.7658L560.959 63.0433C560.97 63.1132 560.962 63.185 560.935 63.2505C560.908 63.3161 560.863 63.3728 560.806 63.4144C560.748 63.456 560.68 63.4807 560.61 63.4859C560.539 63.4911 560.468 63.4766 560.406 63.4439L556.568 61.4251C556.513 61.3964 556.453 61.3815 556.391 61.3815C556.33 61.3815 556.269 61.3964 556.215 61.4251L552.372 63.4439C552.309 63.4766 552.238 63.4911 552.167 63.4859C552.097 63.4807 552.029 63.456 551.971 63.4144C551.914 63.3728 551.869 63.3161 551.842 63.2505C551.815 63.185 551.807 63.1132 551.818 63.0433L552.551 58.7658C552.562 58.705 552.558 58.6424 552.539 58.5835C552.52 58.5247 552.487 58.4714 552.443 58.4285L549.337 55.4003C549.286 55.3508 549.25 55.2881 549.233 55.2191C549.216 55.1502 549.218 55.0779 549.24 55.0103C549.262 54.9428 549.303 54.8827 549.357 54.8371C549.411 54.7914 549.478 54.7619 549.548 54.7519L553.839 54.1273C553.9 54.1186 553.958 54.0951 554.008 54.0588C554.058 54.0225 554.099 53.9746 554.126 53.9191L556.046 50.0291C556.077 49.9644 556.126 49.9099 556.187 49.8718C556.248 49.8337 556.318 49.8135 556.39 49.8135C556.462 49.8135 556.532 49.8337 556.593 49.8718C556.654 49.9099 556.702 49.9644 556.734 50.0291Z" fill="white"/>
<path d="M567.829 75.0566H459.633V75.8473H567.829V75.0566Z" fill="white"/>
<path d="M534.128 83.6855H459.633V84.4762H534.128V83.6855Z" fill="white"/>
<path d="M576.166 118.521H451.297C447.955 118.521 445.246 121.231 445.246 124.574V227.689C445.246 231.033 447.955 233.743 451.297 233.743H576.166C579.508 233.743 582.217 231.033 582.217 227.689V124.574C582.217 121.231 579.508 118.521 576.166 118.521Z" fill="white"/>
<path d="M531.796 139.087H460.099V173.264H531.796V139.087Z" fill="#E8D2D7"/>
<path d="M567.519 139.087H542.037V156.334H567.519V139.087Z" fill="#BF0830"/>
<path d="M567.519 163.979H542.037V181.226H567.519V163.979Z" fill="#E8D2D7"/>
<path d="M567.519 188.869H542.037V206.116H567.519V188.869Z" fill="#E8D2D7"/>
<path d="M528.569 213.179H463.341C462.346 213.179 461.391 212.783 460.687 212.079C459.983 211.375 459.586 210.42 459.585 209.424V184.067C459.586 183.071 459.983 182.116 460.687 181.412C461.391 180.708 462.346 180.312 463.341 180.312H528.583C529.578 180.312 530.532 180.708 531.236 181.412C531.94 182.117 532.335 183.071 532.336 184.067V209.424C532.336 209.918 532.238 210.407 532.049 210.863C531.859 211.32 531.581 211.734 531.231 212.083C530.881 212.432 530.466 212.708 530.009 212.896C529.553 213.085 529.063 213.181 528.569 213.179ZM463.341 181.366C462.625 181.367 461.938 181.651 461.432 182.158C460.925 182.664 460.64 183.351 460.639 184.067V209.424C460.64 210.14 460.925 210.827 461.432 211.333C461.938 211.84 462.625 212.124 463.341 212.125H528.583C529.298 212.124 529.985 211.839 530.491 211.333C530.997 210.827 531.282 210.14 531.283 209.424V184.067C531.282 183.351 530.997 182.664 530.491 182.158C529.985 181.651 529.298 181.367 528.583 181.366H463.341Z" fill="#1A2578"/>
<path d="M523.518 190.157H468.378V190.684H523.518V190.157Z" fill="#1A2578"/>
<path d="M523.518 196.483H468.378V197.01H523.518V196.483Z" fill="#1A2578"/>
<path d="M508.385 202.809H468.378V203.336H508.385V202.809Z" fill="#1A2578"/>
<path d="M273.676 296.606L272.64 297.331L284.489 314.282L285.526 313.557L273.676 296.606Z" fill="#0B1350"/>
<path d="M290.601 284.139L289.359 284.363L294.423 312.407L295.664 312.183L290.601 284.139Z" fill="#0B1350"/>
<path d="M312.896 288.928L305.23 312.352L306.432 312.745L314.098 289.321L312.896 288.928Z" fill="#0B1350"/>
<path d="M393.451 389.804H348.523V398.316H393.451V389.804Z" fill="#0B1350"/>
<path d="M365.543 398.319H301.241L277.076 336.68H341.377L365.543 398.319Z" fill="#BF0830"/>
<path d="M593.748 398.32L596.361 305.737L592.086 289.981C590.504 284.128 587.157 278.905 582.502 275.023C577.846 271.14 572.108 268.788 566.069 268.286L514.274 263.961L476.538 276.482C470.549 278.468 465.216 282.052 461.115 286.849C457.013 291.646 454.299 297.472 453.266 303.699L437.596 398.009L593.748 398.32Z" fill="#1A2578"/>
<path d="M463.439 309.872L462.419 347.122L463.472 347.151L464.493 309.901L463.439 309.872Z" fill="#0B1350"/>
<path d="M509.565 319.227L418.193 339.77L423.119 352.558L509.565 319.227Z" fill="#1A2578"/>
<path d="M437.597 398.013C468.911 393.981 498.429 387.663 525.787 378.597L509.566 319.227C479.946 328.187 449.625 336.199 418.603 343.263L437.597 398.013Z" fill="#E8D2D7"/>
<g opacity="0.8">
<path opacity="0.8" d="M497.275 282.038C497.348 282.963 497.33 283.949 497.309 284.906C497.256 287.631 497.201 290.44 499.187 292.591C500.588 294.106 502.632 294.768 504.792 294.768C507.602 294.741 510.317 293.75 512.484 291.961C515.026 289.784 516.577 286.932 518.079 284.17C518.632 283.153 519.206 282.102 519.815 281.108C524.013 274.256 531.052 268.956 539.178 266.041L536.96 265.854C529.424 268.958 522.957 274.095 518.972 280.589C518.347 281.606 517.768 282.668 517.21 283.699C515.753 286.379 514.244 289.152 511.839 291.207C508.593 293.982 502.677 294.897 499.911 291.916C498.199 290.071 498.247 287.568 498.299 284.924C498.337 283.936 498.325 282.946 498.262 281.959C497.936 277.887 495.549 273.952 491.98 271.362L490.811 271.749C494.48 274.155 496.956 278.03 497.275 282.038Z" fill="white"/>
<path opacity="0.8" d="M483.99 283.335C484.781 285.201 485.065 287.249 485.347 289.225C485.629 291.202 485.926 293.279 486.711 295.221C488.898 300.614 494.961 304.646 501.805 305.252C502.442 305.31 503.085 305.336 503.728 305.336C509.603 305.293 515.263 303.12 519.659 299.219C522.138 297.003 524.068 294.352 525.936 291.787C526.7 290.733 527.464 289.679 528.264 288.672C536.051 278.747 547.831 271.399 560.898 267.851L558.13 267.622C545.866 271.441 534.9 278.599 527.485 288.047C526.676 289.078 525.904 290.135 525.138 291.192C523.294 293.714 521.4 296.32 518.998 298.466C514.346 302.627 507.955 304.791 501.892 304.264C495.409 303.689 489.68 299.905 487.631 294.844C486.891 293.018 486.603 291.018 486.327 289.083C486.034 287.043 485.734 284.932 484.904 282.95C483.674 280.017 481.296 277.526 478.298 275.908L476.96 276.354C480.168 277.819 482.731 280.325 483.99 283.335Z" fill="white"/>
</g>
<path d="M425.275 362.727C411.531 365.96 401.795 384.18 414.536 394.98C417.913 397.842 422.228 399.374 426.653 399.658C434.619 400.185 440.111 398.699 441.141 394.93C443.759 395.236 445.3 391.538 444.375 388.918C448.063 389.227 446.994 383.835 443.914 382.295C450.236 379.367 439.125 372.362 427.899 369.197L425.275 362.727Z" fill="white"/>
<path d="M443.908 382.82C443.854 382.819 443.8 382.812 443.748 382.796L427.09 377.485C426.957 377.443 426.846 377.349 426.782 377.225C426.718 377.1 426.706 376.956 426.749 376.822C426.791 376.689 426.885 376.579 427.009 376.515C427.134 376.451 427.278 376.439 427.411 376.481L444.066 381.792C444.185 381.831 444.286 381.91 444.351 382.017C444.416 382.123 444.442 382.249 444.423 382.373C444.404 382.496 444.342 382.609 444.248 382.691C444.153 382.772 444.033 382.818 443.908 382.82Z" fill="#0B1350"/>
<path d="M444.372 389.446C444.333 389.451 444.295 389.451 444.256 389.446L427.308 385.593C427.241 385.577 427.177 385.548 427.121 385.508C427.064 385.468 427.016 385.417 426.98 385.358C426.943 385.3 426.918 385.234 426.907 385.166C426.895 385.097 426.897 385.028 426.913 384.96C426.944 384.824 427.028 384.706 427.146 384.632C427.264 384.558 427.407 384.534 427.543 384.565L444.488 388.421C444.612 388.452 444.72 388.527 444.793 388.632C444.866 388.737 444.898 388.865 444.884 388.992C444.869 389.119 444.809 389.236 444.714 389.322C444.62 389.408 444.497 389.457 444.369 389.459L444.372 389.446Z" fill="#0B1350"/>
<path d="M441.135 395.456C441.094 395.456 441.053 395.451 441.014 395.44L425.546 391.727C425.479 391.711 425.415 391.682 425.359 391.641C425.303 391.6 425.255 391.548 425.219 391.489C425.183 391.43 425.159 391.364 425.148 391.295C425.137 391.227 425.14 391.157 425.157 391.089C425.173 391.022 425.202 390.958 425.243 390.902C425.284 390.846 425.336 390.799 425.395 390.763C425.454 390.727 425.52 390.703 425.588 390.693C425.657 390.682 425.727 390.685 425.794 390.702L441.259 394.415C441.399 394.432 441.526 394.503 441.613 394.613C441.7 394.724 441.74 394.864 441.724 395.004C441.707 395.144 441.636 395.272 441.526 395.359C441.415 395.446 441.275 395.486 441.135 395.469V395.456Z" fill="#0B1350"/>
<path d="M613.77 369.905L596.361 305.735L558.638 307.116L576.605 364.771L541.782 358.625L545.401 390.757C552.845 392.615 564.351 395.377 572.965 397.431C582.824 399.779 593.221 399.099 602.538 395.111C606.281 393.509 609.531 391.524 610.985 389.16C612.739 386.311 613.89 383.132 614.369 379.821C614.848 376.509 614.644 373.135 613.77 369.905Z" fill="#1A2578"/>
<path d="M577.364 365.441L541.69 359.145L541.875 358.107L575.849 364.103L557.224 303.694L558.23 303.383L577.364 365.441Z" fill="#0B1350"/>
<path d="M499.503 357.432C490.879 356.718 488.416 362.571 507.819 365.961C508.14 369.882 509.913 373.493 512.439 374.689C512.439 374.689 511.207 378.595 513.98 381.679C515.073 382.894 528.973 386.652 545.402 390.758L541.783 358.626C503.259 349.865 490.126 348.619 499.503 357.432Z" fill="white"/>
<path d="M523.397 362.401C523.364 362.405 523.332 362.405 523.299 362.401L499.405 357.96C499.336 357.949 499.27 357.923 499.211 357.886C499.151 357.849 499.1 357.8 499.06 357.742C499.02 357.685 498.991 357.62 498.977 357.551C498.962 357.482 498.961 357.412 498.974 357.343C498.987 357.274 499.014 357.208 499.052 357.149C499.091 357.091 499.141 357.041 499.199 357.002C499.258 356.963 499.323 356.936 499.392 356.923C499.461 356.909 499.532 356.91 499.6 356.924L523.494 361.368C523.563 361.374 523.631 361.394 523.692 361.427C523.754 361.459 523.808 361.503 523.852 361.557C523.897 361.61 523.93 361.672 523.951 361.738C523.971 361.805 523.979 361.875 523.972 361.944C523.966 362.013 523.946 362.08 523.914 362.142C523.881 362.203 523.837 362.258 523.784 362.302C523.73 362.347 523.668 362.38 523.602 362.401C523.536 362.421 523.466 362.429 523.397 362.422V362.401Z" fill="#0B1350"/>
<path d="M524.187 370.044C524.152 370.048 524.116 370.048 524.081 370.044L507.882 366.75C507.745 366.722 507.624 366.641 507.547 366.524C507.47 366.407 507.443 366.265 507.471 366.128C507.499 365.991 507.58 365.871 507.696 365.794C507.813 365.716 507.955 365.689 508.092 365.717L524.292 369.011C524.432 369.025 524.56 369.094 524.649 369.203C524.738 369.312 524.78 369.451 524.766 369.591C524.752 369.731 524.683 369.859 524.575 369.948C524.466 370.037 524.326 370.079 524.187 370.065V370.044Z" fill="#0B1350"/>
<path d="M524.187 378.872C524.135 378.872 524.082 378.864 524.032 378.849L511.728 375.067C511.598 375.022 511.491 374.929 511.429 374.807C511.367 374.685 511.355 374.543 511.396 374.413C511.436 374.282 511.526 374.172 511.646 374.106C511.766 374.04 511.907 374.024 512.039 374.06L524.343 377.842C524.463 377.879 524.566 377.959 524.633 378.065C524.7 378.172 524.726 378.299 524.707 378.424C524.689 378.549 524.626 378.662 524.53 378.745C524.435 378.827 524.313 378.872 524.187 378.872Z" fill="#0B1350"/>
<path d="M545.534 390.254L545.29 391.279L577.46 398.941L577.704 397.916L545.534 390.254Z" fill="#0B1350"/>
<path d="M533.221 225.82C532.228 247.503 523.146 249.158 510.721 249.158C502.776 249.158 499.394 241.251 494.671 233.93C492 229.794 486.732 226.977 486.242 219.529C485.473 207.967 496.813 201.652 509.24 201.652C521.668 201.652 533.809 212.943 533.221 225.82Z" fill="#0B1350"/>
<path d="M524.121 239.145L524.042 264.967L515.576 270.916L505.666 285.791L500.814 268.918L500.833 264.161L500.893 245.689L500.915 239.145H524.121Z" fill="white"/>
<path d="M519.654 245.351C515.297 252.809 508.785 259.69 500.833 264.16L500.894 245.688L519.654 245.351Z" fill="#0B1350"/>
<path d="M521.268 216.056L521.236 218.217L521.089 229.075V229.486L520.962 239.143L520.931 241.357L520.91 242.864L518.402 248.715L518.297 248.958C518.297 248.958 517.812 249.179 516.948 249.537C514.261 250.644 507.855 253.016 500.88 253.807C498.919 254.037 496.942 254.115 494.969 254.039C490.291 253.828 488.299 248.051 487.572 241.346C487.362 239.522 487.267 237.614 487.225 235.748C487.14 231.616 487.372 227.62 487.604 224.774C487.815 222.254 488.025 220.642 488.025 220.642L492.24 212.081L504.283 208.855L520.014 215.518L521.268 216.056Z" fill="white"/>
<path d="M526.786 238.531C529.264 235.576 529.349 231.566 526.977 229.574C524.604 227.582 520.672 228.363 518.194 231.318C515.716 234.273 515.63 238.283 518.003 240.275C520.376 242.267 524.308 241.486 526.786 238.531Z" fill="white"/>
<path d="M488.012 220.646C490.174 218.229 492.395 215.902 495.458 214.935C495.458 214.935 501.538 221.524 508.982 221.141C516.426 220.759 514.814 236.164 515.93 236.164C517.047 236.164 519.468 228.758 523.44 228.426L525.774 217.955L513.947 205.128L500.877 205.705C489.979 208.486 487.587 214.091 488.012 220.646Z" fill="#0B1350"/>
<path d="M535.067 225.123C542.205 223.754 546.749 216.157 545.216 208.155C543.683 200.152 536.654 194.775 529.516 196.144C522.377 197.512 517.834 205.109 519.367 213.112C520.9 221.115 527.929 226.492 535.067 225.123Z" fill="#0B1350"/>
<path d="M521.728 236.774C521.588 236.774 521.454 236.718 521.356 236.619C521.257 236.521 521.201 236.386 521.201 236.247C521.201 234.665 521.918 233.158 523.024 232.433C523.433 232.167 523.903 232.011 524.39 231.979C524.876 231.947 525.363 232.041 525.803 232.251C525.927 232.31 526.023 232.415 526.071 232.543C526.119 232.672 526.115 232.814 526.06 232.94C526.005 233.066 525.902 233.165 525.775 233.216C525.648 233.268 525.506 233.268 525.379 233.216C525.1 233.073 524.789 233.008 524.476 233.025C524.164 233.043 523.862 233.143 523.601 233.316C522.795 233.843 522.255 235.021 522.255 236.247C522.255 236.386 522.199 236.521 522.101 236.619C522.002 236.718 521.868 236.774 521.728 236.774Z" fill="#0B1350"/>
<path d="M492.399 232.526C492.374 232.759 492.282 232.98 492.134 233.161C491.987 233.343 491.789 233.478 491.567 233.55C491.344 233.622 491.105 233.628 490.879 233.567C490.653 233.506 490.449 233.381 490.292 233.207C490.136 233.032 490.033 232.816 489.997 232.585C489.961 232.353 489.992 232.116 490.088 231.902C490.183 231.688 490.339 231.507 490.535 231.379C490.732 231.252 490.961 231.184 491.195 231.184C491.532 231.204 491.847 231.356 492.073 231.607C492.298 231.859 492.416 232.189 492.399 232.526Z" fill="#0B1350"/>
<path d="M502.128 232.298C502.102 232.53 502.01 232.75 501.862 232.931C501.714 233.111 501.517 233.245 501.295 233.316C501.072 233.387 500.834 233.392 500.609 233.331C500.384 233.27 500.181 233.144 500.025 232.97C499.87 232.796 499.768 232.581 499.732 232.35C499.696 232.119 499.728 231.883 499.823 231.67C499.919 231.456 500.074 231.275 500.269 231.149C500.465 231.022 500.694 230.954 500.927 230.954C501.264 230.975 501.579 231.127 501.804 231.379C502.029 231.631 502.146 231.961 502.128 232.298Z" fill="#0B1350"/>
<path d="M493.037 227.586C493.119 228.039 491.841 228.511 490.319 228.851C488.796 229.191 487.658 229.26 487.524 228.819C487.276 227.989 488.464 227.409 489.984 227.069C491.504 226.729 492.842 226.571 493.037 227.586Z" fill="#0B1350"/>
<path d="M498.587 226.906C498.5 227.36 499.975 227.895 501.724 228.314C503.473 228.733 504.782 228.841 504.924 228.416C505.188 227.594 503.823 226.951 502.074 226.535C500.325 226.118 498.779 225.881 498.587 226.906Z" fill="#0B1350"/>
<path d="M495.242 239.533H495.226C495.152 239.533 493.364 239.464 492.45 238.044C491.76 236.969 492.602 236.181 493.277 235.545C493.838 235.018 494.417 234.475 494.528 233.701C494.548 233.561 494.623 233.435 494.735 233.35C494.848 233.265 494.99 233.229 495.13 233.248C495.27 233.268 495.396 233.343 495.48 233.456C495.565 233.569 495.602 233.711 495.582 233.851C495.421 234.987 494.636 235.722 494.001 236.31C493.211 237.05 493.166 237.2 493.34 237.469C493.946 238.41 495.247 238.473 495.258 238.473C495.397 238.473 495.531 238.529 495.63 238.628C495.729 238.727 495.784 238.861 495.784 239.001C495.784 239.14 495.729 239.274 495.63 239.373C495.531 239.472 495.397 239.528 495.258 239.528L495.242 239.533Z" fill="#0B1350"/>
<path d="M497.522 243.739C496.823 243.731 496.128 243.632 495.455 243.447C495.385 243.432 495.32 243.403 495.262 243.362C495.204 243.321 495.155 243.268 495.118 243.208C495.081 243.148 495.056 243.08 495.046 243.01C495.035 242.94 495.039 242.869 495.057 242.8C495.075 242.731 495.106 242.667 495.149 242.611C495.192 242.554 495.246 242.508 495.308 242.473C495.37 242.438 495.438 242.416 495.508 242.408C495.579 242.4 495.65 242.407 495.718 242.427C498.442 243.136 500.077 242.448 501.194 240.118C501.255 239.992 501.363 239.895 501.496 239.849C501.628 239.803 501.773 239.811 501.899 239.872C502.025 239.933 502.122 240.041 502.168 240.173C502.214 240.305 502.206 240.451 502.145 240.577C501.131 242.693 499.609 243.739 497.522 243.739Z" fill="#0B1350"/>
<path opacity="0.4" d="M509.492 238.234C510.59 237.135 510.59 235.355 509.492 234.257C508.395 233.158 506.615 233.158 505.518 234.257C504.42 235.355 504.42 237.135 505.518 238.234C506.615 239.332 508.395 239.332 509.492 238.234Z" fill="#BF0830"/>
<path opacity="0.4" d="M490.471 238.532C490.471 239.278 490.174 239.994 489.647 240.522C489.119 241.05 488.404 241.346 487.658 241.346H487.573C487.363 239.523 487.268 237.614 487.226 235.748C487.372 235.727 487.52 235.716 487.668 235.717C488.412 235.72 489.125 236.017 489.651 236.545C490.176 237.073 490.471 237.787 490.471 238.532Z" fill="#BF0830"/>
<g filter="url(#filter1_d_1_89392)">
<path d="M176.586 398.312H52.5615L57.2186 345.309L59.9528 314.086L84.6291 312.94L175.353 308.749L176.586 398.312Z" fill="#1A2578"/>
<path d="M113.607 398.968L112.05 398.697L117.977 364.678L136.244 357.116L136.847 358.576L119.386 365.806L113.607 398.968Z" fill="#0B1350"/>
<path d="M167.962 316.55L57.2188 345.309L59.9529 314.086L84.6292 312.94L167.962 316.55Z" fill="#0B1350"/>
<path d="M177.51 246.597L181.034 313.539C181.089 314.594 180.93 315.649 180.565 316.64C180.2 317.63 179.637 318.536 178.911 319.303C178.185 320.069 177.31 320.679 176.341 321.097C175.371 321.514 174.327 321.73 173.271 321.731L62.4704 321.765C61.4453 321.765 60.4302 321.563 59.4835 321.169C58.5369 320.775 57.6774 320.198 56.9545 319.471C56.2315 318.744 55.6595 317.881 55.2712 316.932C54.8829 315.982 54.686 314.966 54.6919 313.94L54.9105 276.679L46.9424 203.332L49.616 192.448C51.7019 183.949 56.2704 176.264 62.7388 170.374C69.2073 164.484 77.2826 160.654 85.935 159.374L131.826 152.614C131.826 153.097 150.133 159.026 165.14 163.797C171.204 165.727 176.792 168.916 181.539 173.155C186.286 177.395 190.085 182.59 192.687 188.399L200.59 206.057L177.51 246.597Z" fill="#BF0830"/>
<path d="M87.0566 204.8L46.9418 203.345L39.0264 235.58L78.9936 236.848L87.0566 204.8Z" fill="#BF0830"/>
<path opacity="0.8" d="M174.559 223.123L143.935 227.026C141.565 227.327 139.218 227.68 136.855 227.925C133.844 228.236 127.73 227.685 129.132 222.949C129.961 220.153 132.951 218.435 132.293 215.193C130.649 206.978 119.069 210.552 113.854 211.609L83.6038 217.728C83.077 217.834 83.3035 218.627 83.8224 218.519L113.061 212.605C117.852 211.635 125.373 208.725 129.629 212.37C134.223 216.302 129.169 219.149 128.265 223.039C127.725 225.361 129.253 227.377 131.315 228.289C135.148 229.981 140.508 228.289 144.444 227.783L174.559 223.946C175.078 223.88 175.084 223.057 174.559 223.123Z" fill="white"/>
<path d="M186.032 269.709H119.094V278.338H186.032V269.709Z" fill="#0B1350"/>
<path d="M160.276 278.067C158.833 283.738 144.145 285.731 144.145 285.731C142.09 290.475 139.699 292.847 135.105 292.92C125.517 303.262 87.2484 302.313 54.9964 300.996C48.6705 300.723 42.6613 298.15 38.0967 293.76C33.5321 289.369 30.7257 283.463 30.2042 277.149C30.141 276.443 30.1094 275.737 30.1094 275.02C30.1115 272.927 30.3663 270.842 30.868 268.811L39.0337 235.582C50.1707 235.93 66.7234 236.457 78.9983 236.847L72.2761 263.55C122.219 265.595 189.515 266.839 126.897 273.407C130.606 279.311 143.882 278.014 160.276 278.067Z" fill="white"/>
<path d="M136.276 286.687C132.093 286.687 126.991 286.318 122.842 284.89C122.715 284.841 122.612 284.744 122.554 284.621C122.497 284.497 122.489 284.356 122.534 284.227C122.578 284.098 122.67 283.991 122.792 283.929C122.913 283.867 123.054 283.854 123.185 283.894C131.398 286.716 143.96 285.225 144.086 285.212C144.226 285.195 144.367 285.234 144.477 285.321C144.588 285.408 144.66 285.536 144.676 285.675C144.693 285.815 144.654 285.956 144.567 286.067C144.48 286.177 144.352 286.249 144.213 286.266C141.577 286.555 138.927 286.696 136.276 286.687Z" fill="#0B1350"/>
<path d="M127.159 294.419C124.493 294.403 121.836 294.131 119.222 293.605C119.092 293.572 118.98 293.49 118.908 293.376C118.836 293.263 118.81 293.126 118.836 292.994C118.861 292.862 118.936 292.745 119.045 292.666C119.154 292.588 119.289 292.554 119.422 292.572C125.141 293.676 130.083 293.626 134.964 292.408C135.031 292.391 135.101 292.387 135.169 292.397C135.238 292.407 135.304 292.43 135.364 292.465C135.423 292.5 135.475 292.547 135.517 292.602C135.559 292.658 135.589 292.721 135.606 292.788C135.624 292.855 135.628 292.925 135.618 292.994C135.608 293.062 135.585 293.128 135.55 293.188C135.515 293.248 135.468 293.3 135.413 293.342C135.357 293.383 135.294 293.414 135.227 293.431C132.589 294.091 129.879 294.423 127.159 294.419Z" fill="#0B1350"/>
<path d="M234.643 256.424C233.402 259.716 231.465 262.7 228.964 265.174C228.835 265.322 228.698 265.463 228.553 265.595L227.689 266.428C224.433 269.542 220.396 271.716 216.005 272.721C211.614 273.725 207.034 273.521 202.749 272.131C201.208 271.639 199.719 270.996 198.303 270.213C195.31 268.556 192.689 266.303 190.601 263.592L177.504 246.598L200.579 206.043L207.385 221.234C217.237 193.698 233.463 145.827 236.129 170.073C242.029 157.212 250.911 141.304 252.355 152.415C255.231 149.822 256.906 152.152 257.844 157.423C257.844 157.528 257.876 157.644 257.897 157.75C261.627 155.494 261.679 158.846 261.184 165.962C269.613 164.792 249.12 218.567 234.643 256.424Z" fill="white"/>
<path d="M202.999 235.545C202.941 235.545 202.884 235.536 202.828 235.519C202.763 235.496 202.702 235.461 202.65 235.416C202.598 235.37 202.555 235.314 202.525 235.252C202.494 235.19 202.476 235.122 202.472 235.053C202.467 234.984 202.477 234.915 202.499 234.849L211.631 207.967C211.654 207.901 211.689 207.841 211.734 207.789C211.78 207.737 211.836 207.694 211.898 207.664C211.96 207.633 212.027 207.615 212.097 207.61C212.166 207.606 212.235 207.615 212.3 207.638C212.366 207.66 212.427 207.695 212.479 207.741C212.531 207.786 212.573 207.842 212.604 207.904C212.634 207.966 212.652 208.034 212.657 208.103C212.661 208.172 212.652 208.241 212.63 208.307L203.497 235.189C203.462 235.293 203.395 235.383 203.305 235.447C203.216 235.511 203.109 235.545 202.999 235.545Z" fill="#0B1350"/>
<path d="M242.16 175.808C242.072 175.808 241.985 175.786 241.908 175.744C241.831 175.702 241.766 175.641 241.718 175.567C241.67 175.493 241.642 175.409 241.635 175.321C241.629 175.233 241.644 175.145 241.68 175.065L251.871 152.186C251.897 152.119 251.935 152.058 251.985 152.006C252.035 151.954 252.095 151.913 252.161 151.886C252.227 151.858 252.298 151.844 252.37 151.845C252.442 151.846 252.513 151.861 252.578 151.89C252.644 151.919 252.703 151.961 252.751 152.014C252.8 152.067 252.838 152.129 252.861 152.197C252.885 152.264 252.895 152.336 252.89 152.408C252.885 152.479 252.866 152.549 252.833 152.613L242.642 175.495C242.6 175.588 242.533 175.667 242.447 175.723C242.361 175.779 242.262 175.808 242.16 175.808Z" fill="#0B1350"/>
<path d="M248.304 178.444C248.228 178.444 248.152 178.427 248.083 178.394C248.019 178.366 247.962 178.325 247.914 178.274C247.867 178.224 247.83 178.164 247.805 178.099C247.781 178.034 247.769 177.964 247.772 177.895C247.774 177.825 247.79 177.757 247.82 177.693L257.487 156.923C257.551 156.806 257.657 156.717 257.784 156.676C257.911 156.634 258.049 156.642 258.17 156.698C258.291 156.755 258.387 156.855 258.437 156.979C258.487 157.103 258.488 157.241 258.44 157.366L248.776 178.139C248.734 178.229 248.668 178.306 248.584 178.36C248.501 178.414 248.404 178.443 248.304 178.444Z" fill="#0B1350"/>
<path d="M253.749 182.134C253.672 182.134 253.595 182.117 253.525 182.084C253.462 182.056 253.405 182.015 253.357 181.964C253.309 181.914 253.272 181.854 253.248 181.789C253.223 181.724 253.212 181.654 253.214 181.585C253.217 181.515 253.233 181.447 253.262 181.383L260.637 165.705C260.666 165.641 260.707 165.583 260.758 165.535C260.809 165.487 260.869 165.45 260.935 165.426C261.001 165.401 261.07 165.39 261.14 165.393C261.21 165.396 261.279 165.413 261.342 165.443C261.406 165.472 261.463 165.514 261.509 165.566C261.556 165.618 261.592 165.679 261.616 165.745C261.639 165.812 261.649 165.882 261.644 165.951C261.64 166.021 261.622 166.09 261.591 166.153L254.215 181.831C254.174 181.92 254.108 181.996 254.026 182.049C253.943 182.103 253.847 182.132 253.749 182.134Z" fill="#0B1350"/>
<path d="M233.73 188.458C233.602 188.458 233.479 188.412 233.383 188.327C233.287 188.243 233.225 188.127 233.209 188C233.192 187.874 233.222 187.746 233.292 187.639C233.363 187.533 233.47 187.456 233.593 187.423C236.187 186.719 237.71 183.177 237.452 180.433C237.341 179.25 236.767 178.167 236.161 177.02C235.371 175.55 234.581 174.029 234.789 172.231C234.797 172.162 234.818 172.095 234.852 172.034C234.886 171.974 234.932 171.92 234.987 171.877C235.041 171.834 235.104 171.802 235.171 171.783C235.238 171.764 235.308 171.758 235.377 171.766C235.447 171.774 235.513 171.796 235.574 171.83C235.635 171.864 235.689 171.91 235.732 171.965C235.775 172.019 235.807 172.082 235.826 172.149C235.845 172.216 235.85 172.286 235.842 172.355C235.668 173.826 236.369 175.138 237.099 176.527C237.728 177.713 238.376 178.942 238.508 180.336C238.811 183.562 237.022 187.589 233.877 188.44C233.829 188.453 233.78 188.46 233.73 188.458Z" fill="#0B1350"/>
<path d="M78.9939 237.361C78.9504 237.361 78.9071 237.355 78.8648 237.345C78.7977 237.328 78.7346 237.298 78.6791 237.257C78.6235 237.215 78.5767 237.163 78.5412 237.104C78.5057 237.045 78.4823 236.979 78.4723 236.91C78.4623 236.842 78.4659 236.772 78.4829 236.705L86.5459 204.657C86.5625 204.589 86.5923 204.526 86.6335 204.47C86.6747 204.414 86.7266 204.367 86.786 204.331C86.8455 204.295 86.9115 204.272 86.9801 204.262C87.0487 204.251 87.1187 204.255 87.186 204.272C87.2534 204.288 87.3168 204.318 87.3726 204.359C87.4284 204.401 87.4756 204.453 87.5113 204.512C87.547 204.572 87.5706 204.638 87.5808 204.706C87.591 204.775 87.5875 204.845 87.5706 204.912L79.5049 236.952C79.4782 237.068 79.4132 237.171 79.3205 237.246C79.2277 237.32 79.1126 237.36 78.9939 237.361Z" fill="#0B1350"/>
<path d="M178.852 270.423C178.719 270.423 178.591 270.373 178.493 270.283C178.395 270.192 178.336 270.068 178.326 269.935L173.321 202.729C173.316 202.66 173.324 202.59 173.346 202.525C173.367 202.459 173.402 202.398 173.447 202.345C173.539 202.239 173.668 202.173 173.808 202.163C173.948 202.152 174.086 202.198 174.192 202.289C174.298 202.38 174.364 202.51 174.374 202.65L179.379 269.856C179.385 269.925 179.376 269.995 179.355 270.06C179.334 270.126 179.299 270.187 179.254 270.24C179.209 270.292 179.154 270.336 179.093 270.367C179.031 270.398 178.964 270.417 178.895 270.423H178.852Z" fill="#0B1350"/>
<path d="M123.969 187.468C123.003 187.467 122.039 187.395 121.084 187.252C115.263 186.387 110.335 183.035 108.817 178.889C108.794 178.824 108.783 178.755 108.786 178.686C108.788 178.617 108.805 178.549 108.834 178.486C108.863 178.423 108.904 178.366 108.955 178.319C109.006 178.272 109.066 178.236 109.131 178.212C109.196 178.188 109.265 178.177 109.334 178.18C109.403 178.183 109.471 178.199 109.534 178.229C109.597 178.258 109.654 178.299 109.701 178.35C109.748 178.401 109.784 178.461 109.808 178.526C111.172 182.252 115.866 185.412 121.24 186.211C127.894 187.204 134.147 184.543 138.393 178.916C138.477 178.804 138.602 178.73 138.741 178.711C138.88 178.691 139.02 178.727 139.132 178.812C139.244 178.896 139.318 179.021 139.337 179.16C139.357 179.298 139.32 179.439 139.236 179.551C135.367 184.677 129.917 187.468 123.969 187.468Z" fill="#0B1350"/>
<path opacity="0.4" d="M49.866 289.482C49.8782 293.023 48.5055 296.429 46.0413 298.97C41.6577 297.129 37.863 294.12 35.0706 290.27C32.2783 286.421 30.5953 281.878 30.2051 277.138C32.2938 276.127 34.6048 275.664 36.9214 275.791C39.238 275.919 41.4843 276.633 43.4495 277.867C45.4147 279.101 47.0344 280.814 48.1568 282.846C49.2791 284.877 49.8672 287.161 49.866 289.482Z" fill="#DBDBDB"/>
<path opacity="0.4" d="M228.964 265.173C228.835 265.322 228.698 265.463 228.553 265.595L227.689 266.428C224.433 269.542 220.396 271.716 216.005 272.72C211.614 273.724 207.034 273.521 202.749 272.131C202.677 271.593 202.641 271.051 202.644 270.508C202.641 267.343 203.732 264.275 205.733 261.824C207.735 259.373 210.522 257.691 213.622 257.063C216.722 256.435 219.943 256.899 222.74 258.377C225.537 259.856 227.736 262.257 228.964 265.173Z" fill="#DBDBDB"/>
<path d="M145.642 142.864L141.844 156.042L139.444 164.346C138.868 166.356 137.833 168.204 136.42 169.744C135.008 171.285 133.257 172.476 131.305 173.223C129.354 173.97 127.256 174.254 125.176 174.051C123.096 173.847 121.092 173.163 119.322 172.053C116.622 170.369 114.573 167.818 113.511 164.818C112.449 161.817 112.437 158.544 113.477 155.536L118.93 139.723L135.654 141.686L145.642 142.864Z" fill="white"/>
<path d="M145.665 142.957L140.944 159.205C130.408 156.833 124.463 145.31 124.463 145.31L135.668 141.773L145.665 142.957Z" fill="#0B1350"/>
<path d="M150.196 108.455C150.196 108.455 159.942 139.52 152.645 146.686C145.006 154.197 124.439 145.236 124.439 145.236L114.074 115.684L129.149 106.257L150.196 108.455Z" fill="white"/>
<path d="M121.957 131.795C122.729 123.069 122.821 118.51 130.255 116.114C165.12 124.943 160.874 82.0182 139.319 98.7538C124.652 92.8818 113.051 96.3818 107.633 110.774C97.5049 117.255 99.6596 130.14 115.535 137.878L121.957 131.795Z" fill="#0B1350"/>
<path d="M122.327 141.552C125.234 139.514 125.39 134.719 122.675 130.84C119.96 126.962 115.402 125.47 112.495 127.508C109.587 129.545 109.431 134.341 112.147 138.219C114.862 142.097 119.419 143.59 122.327 141.552Z" fill="white"/>
<path d="M118.56 136.12H118.497C118.358 136.103 118.232 136.032 118.145 135.923C118.059 135.813 118.019 135.673 118.036 135.535C118.09 135.226 118.061 134.909 117.953 134.616C117.845 134.322 117.66 134.063 117.419 133.864C116.682 133.247 115.396 133.073 114.224 133.431C114.157 133.456 114.086 133.466 114.015 133.462C113.943 133.458 113.874 133.439 113.81 133.407C113.746 133.375 113.689 133.331 113.643 133.276C113.597 133.222 113.563 133.158 113.542 133.09C113.521 133.022 113.514 132.95 113.522 132.879C113.529 132.808 113.551 132.739 113.586 132.677C113.621 132.615 113.669 132.56 113.725 132.517C113.782 132.474 113.847 132.442 113.916 132.425C115.441 131.958 117.077 132.203 118.096 133.055C118.47 133.367 118.757 133.771 118.93 134.227C119.103 134.683 119.155 135.176 119.082 135.658C119.066 135.786 119.004 135.903 118.908 135.987C118.812 136.072 118.688 136.119 118.56 136.12Z" fill="#0B1350"/>
<path d="M149.616 125.431C149.879 126.198 150.575 126.62 151.196 126.375C151.818 126.13 152.126 125.321 151.879 124.53C151.631 123.739 150.92 123.341 150.298 123.587C149.676 123.832 149.368 124.664 149.616 125.431Z" fill="#0B1350"/>
<path d="M140.397 128.796C140.647 129.563 141.355 129.985 141.977 129.74C142.599 129.495 142.907 128.673 142.657 127.895C142.406 127.118 141.701 126.706 141.076 126.952C140.452 127.197 140.133 128.029 140.397 128.796Z" fill="#0B1350"/>
<path d="M147.357 120.561C147.431 121.059 148.793 121.072 150.339 120.861C151.885 120.65 152.973 120.3 152.957 119.807C152.913 118.858 151.601 118.697 150.06 118.908C148.519 119.119 147.189 119.44 147.357 120.561Z" fill="#0B1350"/>
<path d="M141.906 121.91C142.14 122.345 140.934 123.447 139.427 124.525C137.92 125.602 136.732 126.217 136.451 125.816C135.924 125.065 136.993 123.895 138.5 122.814C140.007 121.734 141.384 120.932 141.906 121.91Z" fill="#0B1350"/>
<path d="M149.122 133.736C148.998 133.732 148.879 133.686 148.784 133.606C148.69 133.526 148.624 133.416 148.599 133.294C148.575 133.173 148.591 133.046 148.647 132.935C148.703 132.824 148.794 132.735 148.906 132.682C148.906 132.682 150.115 132.139 150.374 130.919C150.458 130.518 150.305 130.368 149.359 129.915C148.569 129.538 147.581 129.069 147.049 127.957C147.018 127.891 147 127.821 146.996 127.748C146.992 127.676 147.002 127.604 147.026 127.535C147.075 127.398 147.176 127.285 147.308 127.221C147.439 127.158 147.591 127.15 147.728 127.198C147.866 127.247 147.979 127.348 148.042 127.48C148.409 128.239 149.133 128.584 149.836 128.919C150.679 129.322 151.733 129.823 151.454 131.148C151.074 132.938 149.41 133.668 149.346 133.699C149.275 133.726 149.199 133.739 149.122 133.736Z" fill="#0B1350"/>
<path d="M147.564 138.572C146.169 138.554 144.829 138.023 143.8 137.08C143.709 136.977 143.66 136.842 143.663 136.704C143.666 136.566 143.721 136.434 143.817 136.335C143.913 136.235 144.043 136.175 144.18 136.167C144.318 136.159 144.454 136.203 144.561 136.29C145.76 137.431 148.115 137.961 149.247 136.904C149.3 136.854 149.362 136.816 149.43 136.79C149.498 136.765 149.57 136.753 149.643 136.755C149.715 136.758 149.786 136.775 149.852 136.805C149.918 136.835 149.978 136.877 150.027 136.93C150.077 136.983 150.115 137.045 150.141 137.113C150.166 137.181 150.178 137.253 150.175 137.326C150.173 137.398 150.156 137.469 150.126 137.535C150.096 137.601 150.054 137.661 150.001 137.71C149.327 138.297 148.456 138.605 147.564 138.572Z" fill="#0B1350"/>
<path opacity="0.4" d="M140.019 134.848C140.247 133.44 139.291 132.113 137.884 131.884C136.477 131.656 135.151 132.612 134.922 134.02C134.694 135.428 135.65 136.755 137.057 136.983C138.464 137.212 139.79 136.256 140.019 134.848Z" fill="#CECECE"/>
</g>
<defs>
<filter id="filter0_d_1_89392" x="105.461" y="0" width="340.014" height="276.961" filterUnits="userSpaceOnUse" color-interpolation-filters="sRGB">
<feFlood flood-opacity="0" result="BackgroundImageFix"/>
<feColorMatrix in="SourceAlpha" type="matrix" values="0 0 0 0 0 0 0 0 0 0 0 0 0 0 0 0 0 0 127 0" result="hardAlpha"/>
<feOffset dy="4"/>
<feGaussianBlur stdDeviation="14"/>
<feComposite in2="hardAlpha" operator="out"/>
<feColorMatrix type="matrix" values="0 0 0 0 0 0 0 0 0 0 0 0 0 0 0 0 0 0 0.06 0"/>
<feBlend mode="normal" in2="BackgroundImageFix" result="effect1_dropShadow_1_89392"/>
<feBlend mode="normal" in="SourceGraphic" in2="effect1_dropShadow_1_89392" result="shape"/>
</filter>
<filter id="filter1_d_1_89392" x="7.10938" y="73.8418" width="279.043" height="350.127" filterUnits="userSpaceOnUse" color-interpolation-filters="sRGB">
<feFlood flood-opacity="0" result="BackgroundImageFix"/>
<feColorMatrix in="SourceAlpha" type="matrix" values="0 0 0 0 0 0 0 0 0 0 0 0 0 0 0 0 0 0 127 0" result="hardAlpha"/>
<feOffset dy="2"/>
<feGaussianBlur stdDeviation="11.5"/>
<feComposite in2="hardAlpha" operator="out"/>
<feColorMatrix type="matrix" values="0 0 0 0 0 0 0 0 0 0 0 0 0 0 0 0 0 0 0.09 0"/>
<feBlend mode="normal" in2="BackgroundImageFix" result="effect1_dropShadow_1_89392"/>
<feBlend mode="normal" in="SourceGraphic" in2="effect1_dropShadow_1_89392" result="shape"/>
</filter>
</defs>
</svg>
